<?xml version="1.0" encoding="utf-8"?>
<svg version="1.1" viewBox="-50 -50 400 400" xmlns="http://www.w3.org/2000/svg" xmlns:xlink="http://www.w3.org/1999/xlink" xmlns:bx="https://boxy-svg.com">
  <defs>
    <linearGradient id="gradient-1" bx:pinned="true">
      <stop style="stop-color: rgb(40, 188, 255);" offset="0"/>
      <stop style="stop-color: rgb(40, 155, 255);" offset="1"/>
    </linearGradient>
    <linearGradient id="gradient-1-0" gradientUnits="userSpaceOnUse" x1="294.21" y1="10.498" x2="294.21" y2="558.382" gradientTransform="matrix(0.486977, 0, 0, 0.511776, 8.811557, 4.430732)" xlink:href="#gradient-1"/>
  </defs>
  <path style="paint-order: stroke; fill: url('#gradient-1-0'); stroke-linejoin: round; stroke: rgb(255, 255, 255); stroke-width: 100px;" d="M 300 64.54 L 233.739 64.148 C 232.555 105.375 225.972 146 225.241 181.894 C 224.879 199.652 226.038 212.954 230.306 222.408 C 232.3 226.821 233.897 228.888 237.058 230.95 C 240.305 233.068 243.027 233.99 248.507 233.759 C 256.667 233.857 260.175 231.464 264.021 226.539 C 267.972 221.484 269.842 215.534 270.144 206.25 L 270.447 196.91 L 299.973 196.91 L 299.916 206.723 C 299.837 220.278 295.623 244.012 284.969 263.219 C 279.627 272.848 271.741 282.685 262.355 289.201 C 253.008 295.694 240.029 299.767 226.256 299.614 C 209.829 299.102 193.171 292.698 182.404 281.177 C 171.794 269.822 164.941 251.109 164.231 230.066 C 165.278 171.288 173.101 118.771 176.679 63.308 L 135.029 63.308 C 128.244 142.546 125.316 197.573 117.998 236.158 C 114.276 255.784 108.943 271.666 101.411 281.993 C 93.471 292.883 79.884 299.047 66.087 300 C 57.01 299.316 46.541 295.27 39.79 288.916 C 33.11 282.631 28.063 272.099 26.706 261.209 C 26.506 240.617 42.196 225.145 57.474 198.849 C 73.268 171.664 88.327 133.861 90.231 62.678 C 68.017 61.009 58.418 65.903 49.592 74.56 C 41.269 82.723 37.522 94.211 31.349 102.19 L 28.397 106.005 L 0 103.79 L 4.955 91.364 C 13.892 68.949 18.634 51.69 25.2 38.501 C 32.014 24.816 42.52 14.093 59.713 8.461 C 91.394 -1.918 152.868 -0.124 289.921 0.571 L 299.461 0.62 L 300 64.54 Z"/>
</svg>
